# xmcd
#
# Track frame offsets: 
#        150
#        31149
#        51760
#        58555
#        63520
#        73726
#        80640
#        90900
#        104557
#        114353
#        126934
#        138544
#        150807
#        163921
#        179758
#        191495
#        206716
#        223603
#        235812
#        247932
#        260220
#        271440
#        287016
#        298195
#        310091
#        321957
#        334113
#
# Disc length: 4618 seconds
#
# Revision: 0
# Processed by: cddbd v1.5.2PL0 Copyright (c) Steve Scherf et al.
# Submitted via: ExactAudioCopy v0.95b4
#
DISCID=9e12081b
DTITLE=Dave Brubeck  - Time Was [CD1 - Playland-at-the-Beach) 2005 
DTITLE=FLAC
DYEAR=1900
DGENRE=
TTITLE0=How High the Moon
TTITLE1=Serenade's Suite
TTITLE2=Playland at the Beach
TTITLE3=Prisoner's Song
TTITLE4=Shizophrenic Scherzo
TTITLE5=Rondo
TTITLE6=I Hear a Rhapsody
TTITLE7=You Go to My Head
TTITLE8=Laura
TTITLE9=Tea for Two
TTITLE10=Indiana
TTITLE11=Laura
TTITLE12=You Stepped Out of a Dream
TTITLE13=Lullaby in Rhythm
TTITLE14=Singing in the Rain
TTITLE15=I'll Remember April
TTITLE16=Body and Soul
TTITLE17=Let's Fall In Love
TTITLE18='S Wonderful
TTITLE19=Sweet Georgia Brown
TTITLE20=Undecided
TTITLE21=September Song
TTITLE22=Spring Is Here
TTITLE23=That Old Black Magic
TTITLE24=Love Walked In
TTITLE25=Ipca
TTITLE26=What Is This Thing Called Love
EXTD=
EXTT0=
EXTT1=
EXTT2=
EXTT3=
EXTT4=
EXTT5=
EXTT6=
EXTT7=
EXTT8=
EXTT9=
EXTT10=
EXTT11=
EXTT12=
EXTT13=
EXTT14=
EXTT15=
EXTT16=
EXTT17=
EXTT18=
EXTT19=
EXTT20=
EXTT21=
EXTT22=
EXTT23=
EXTT24=
EXTT25=
EXTT26=
PLAYORDER=
